{
    "asset" : {
        "generator" : "Khronos glTF Blender I/O v1.5.17",
        "version" : "2.0"
    },
    "scene" : 0,
    "scenes" : [
        {
            "name" : "Scene",
            "nodes" : [
                0,
                1,
                2,
                3,
                4,
                5
            ]
        }
    ],
    "nodes" : [
        {
            "mesh" : 0,
            "name" : "Cube",
            "scale" : [
                0.13647609949111938,
                0.13647609949111938,
                0.13647609949111938
            ]
        },
        {
            "name" : "Light",
            "rotation" : [
                0.16907575726509094,
                0.7558803558349609,
                -0.27217137813568115,
                0.570947527885437
            ],
            "translation" : [
                4.076245307922363,
                5.903861999511719,
                -1.0054539442062378
            ]
        },
        {
            "name" : "Camera",
            "rotation" : [
                0.483536034822464,
                0.33687159419059753,
                -0.20870360732078552,
                0.7804827094078064
            ],
            "translation" : [
                7.358891487121582,
                4.958309173583984,
                6.925790786743164
            ]
        },
        {
            "mesh" : 1,
            "name" : "crossbeam",
            "rotation" : [
                0.7071068286895752,
                0,
                0,
                0.7071068286895752
            ],
            "scale" : [
                0.0781019926071167,
                3.77683162689209,
                0.0781019926071167
            ],
            "translation" : [
                0,
                4.762248516082764,
                0.296162486076355
            ]
        },
        {
            "mesh" : 2,
            "name" : "flag",
            "scale" : [
                -0.013077642768621445,
                1,
                1
            ],
            "translation" : [
                0,
                3.7649176120758057,
                1.2402081489562988
            ]
        },
        {
            "mesh" : 3,
            "name" : "Torus",
            "scale" : [
                0.2558923661708832,
                0.2558923661708832,
                0.2558923661708832
            ]
        }
    ],
    "materials" : [
        {
            "doubleSided" : true,
            "name" : "flagac",
            "pbrMetallicRoughness" : {
                "baseColorFactor" : [
                    0.0034884619526565075,
                    0.8000000715255737,
                    0,
                    1
                ],
                "metallicFactor" : 0,
                "roughnessFactor" : 0.4000000059604645
            }
        },
        {
            "doubleSided" : true,
            "name" : "beam",
            "pbrMetallicRoughness" : {
                "baseColorFactor" : [
                    0.26676055788993835,
                    0.26676055788993835,
                    0.26676055788993835,
                    1
                ],
                "metallicFactor" : 0,
                "roughnessFactor" : 0.5
            }
        },
        {
            "doubleSided" : true,
            "name" : "flag",
            "pbrMetallicRoughness" : {
                "baseColorFactor" : [
                    0.007795635610818863,
                    0.8000000715255737,
                    0.8000000715255737,
                    1
                ],
                "metallicFactor" : 0,
                "roughnessFactor" : 0.5
            }
        },
        {
            "doubleSided" : true,
            "name" : "base",
            "pbrMetallicRoughness" : {
                "baseColorFactor" : [
                    0.04954901337623596,
                    0.04954901337623596,
                    0.04954901337623596,
                    1
                ],
                "metallicFactor" : 0,
                "roughnessFactor" : 0.5
            }
        }
    ],
    "meshes" : [
        {
            "name" : "Cube",
            "primitives" : [
                {
                    "attributes" : {
                        "POSITION" : 0,
                        "NORMAL" : 1,
                        "TEXCOORD_0" : 2
                    },
                    "indices" : 3,
                    "material" : 0
                }
            ]
        },
        {
            "name" : "croddbeam",
            "primitives" : [
                {
                    "attributes" : {
                        "POSITION" : 4,
                        "NORMAL" : 5,
                        "TEXCOORD_0" : 6
                    },
                    "indices" : 7,
                    "material" : 1
                }
            ]
        },
        {
            "name" : "flag",
            "primitives" : [
                {
                    "attributes" : {
                        "POSITION" : 8,
                        "NORMAL" : 9,
                        "TEXCOORD_0" : 10
                    },
                    "indices" : 11,
                    "material" : 2
                }
            ]
        },
        {
            "name" : "Torus",
            "primitives" : [
                {
                    "attributes" : {
                        "POSITION" : 12,
                        "NORMAL" : 13,
                        "TEXCOORD_0" : 14
                    },
                    "indices" : 15,
                    "material" : 3
                }
            ]
        }
    ],
    "accessors" : [
        {
            "bufferView" : 0,
            "componentType" : 5126,
            "count" : 24,
            "max" : [
                1,
                1,
                1
            ],
            "min" : [
                -1,
                -1,
                -1
            ],
            "type" : "VEC3"
        },
        {
            "bufferView" : 1,
            "componentType" : 5126,
            "count" : 24,
            "type" : "VEC3"
        },
        {
            "bufferView" : 2,
            "componentType" : 5126,
            "count" : 24,
            "type" : "VEC2"
        },
        {
            "bufferView" : 3,
            "componentType" : 5123,
            "count" : 36,
            "type" : "SCALAR"
        },
        {
            "bufferView" : 4,
            "componentType" : 5126,
            "count" : 365,
            "max" : [
                1.4060605764389038,
                0.5686435699462891,
                59.75144958496094
            ],
            "min" : [
                -1.4060605764389038,
                -0.1614089012145996,
                -3.2663707733154297
            ],
            "type" : "VEC3"
        },
        {
            "bufferView" : 5,
            "componentType" : 5126,
            "count" : 365,
            "type" : "VEC3"
        },
        {
            "bufferView" : 6,
            "componentType" : 5126,
            "count" : 365,
            "type" : "VEC2"
        },
        {
            "bufferView" : 7,
            "componentType" : 5123,
            "count" : 1128,
            "type" : "SCALAR"
        },
        {
            "bufferView" : 8,
            "componentType" : 5126,
            "count" : 36,
            "max" : [
                1,
                1,
                1
            ],
            "min" : [
                -1,
                -1,
                -1
            ],
            "type" : "VEC3"
        },
        {
            "bufferView" : 9,
            "componentType" : 5126,
            "count" : 36,
            "type" : "VEC3"
        },
        {
            "bufferView" : 10,
            "componentType" : 5126,
            "count" : 36,
            "type" : "VEC2"
        },
        {
            "bufferView" : 11,
            "componentType" : 5123,
            "count" : 72,
            "type" : "SCALAR"
        },
        {
            "bufferView" : 12,
            "componentType" : 5126,
            "count" : 637,
            "max" : [
                1.25,
                0.25,
                1.25
            ],
            "min" : [
                -1.25,
                -0.25,
                -1.25
            ],
            "type" : "VEC3"
        },
        {
            "bufferView" : 13,
            "componentType" : 5126,
            "count" : 637,
            "type" : "VEC3"
        },
        {
            "bufferView" : 14,
            "componentType" : 5126,
            "count" : 637,
            "type" : "VEC2"
        },
        {
            "bufferView" : 15,
            "componentType" : 5123,
            "count" : 3456,
            "type" : "SCALAR"
        }
    ],
    "bufferViews" : [
        {
            "buffer" : 0,
            "byteLength" : 288,
            "byteOffset" : 0
        },
        {
            "buffer" : 0,
            "byteLength" : 288,
            "byteOffset" : 288
        },
        {
            "buffer" : 0,
            "byteLength" : 192,
            "byteOffset" : 576
        },
        {
            "buffer" : 0,
            "byteLength" : 72,
            "byteOffset" : 768
        },
        {
            "buffer" : 0,
            "byteLength" : 4380,
            "byteOffset" : 840
        },
        {
            "buffer" : 0,
            "byteLength" : 4380,
            "byteOffset" : 5220
        },
        {
            "buffer" : 0,
            "byteLength" : 2920,
            "byteOffset" : 9600
        },
        {
            "buffer" : 0,
            "byteLength" : 2256,
            "byteOffset" : 12520
        },
        {
            "buffer" : 0,
            "byteLength" : 432,
            "byteOffset" : 14776
        },
        {
            "buffer" : 0,
            "byteLength" : 432,
            "byteOffset" : 15208
        },
        {
            "buffer" : 0,
            "byteLength" : 288,
            "byteOffset" : 15640
        },
        {
            "buffer" : 0,
            "byteLength" : 144,
            "byteOffset" : 15928
        },
        {
            "buffer" : 0,
            "byteLength" : 7644,
            "byteOffset" : 16072
        },
        {
            "buffer" : 0,
            "byteLength" : 7644,
            "byteOffset" : 23716
        },
        {
            "buffer" : 0,
            "byteLength" : 5096,
            "byteOffset" : 31360
        },
        {
            "buffer" : 0,
            "byteLength" : 6912,
            "byteOffset" : 36456
        }
    ],
    "buffers" : [
        {
            "byteLength" : 43368,
            "uri" : "data:application/octet-stream;base64,"
        }
    ]
}
